# AST/ASF file generated using VICON BodyLanguage
# -----------------------------------------------
:version 1.10
:name VICON
:units
  mass 1.0
  length 0.45
  angle deg
:documentation
   .ast/.asf automatically generated from VICON data using
   VICON BodyBuilder and BodyLanguage model FoxedUp or BRILLIANT.MOD
:root
   order TX TY TZ RX RY RZ
   axis XYZ
   position 0 0 0  
   orientation 0 0 0 
:bonedata
  begin
     id 1 
     name lhipjoint
     direction 0.561145 -0.797705 0.220866 
     length 2.46425 
     axis 0 0 0  XYZ
  end
  begin
     id 2 
     name lfemur
     direction 0.34202 -0.939693 0  
     length 7.95556  
     axis 0 0 20  XYZ
    dof rx ry rz
    limits (-160.0 20.0)
           (-70.0 70.0)
           (-60.0 70.0)
  end
  begin
     id 3 
     name ltibia
     direction 0.34202 -0.939693 0   
     length 7.9832   
     axis 0 0 20   XYZ
    dof rx
    limits (-10.0 170.0)
  end
  begin
     id 4 
     name lfoot
     direction 0.0723927 -0.198897 0.977343   
     length 2.23085   
     axis -90 7.62852e-016 20   XYZ
    dof rx rz
    limits (-45.0 90.0)
           (-70.0 20.0)
  end
  begin
     id 5 
     name ltoes
     direction 1.53826e-011 -4.21988e-011 1   
     length 1.12127   
     axis -90 7.62852e-016 20   XYZ
    dof rx
    limits (-90.0 20.0)
  end
  begin
     id 6 
     name rhipjoint
     direction -0.610499 -0.763299 0.21134   
     length 2.57533  
     axis 0 0 0  XYZ 
  end
  begin
     id 7 
     name rfemur
     direction -0.34202 -0.939693 0   
     length 8.65257   
     axis 0 0 -20   XYZ
    dof rx ry rz
    limits (-160.0 20.0)
           (-70.0 70.0)
           (-70.0 60.0)
  end
  begin
     id 8 
     name rtibia
     direction -0.342021 -0.939692 0   
     length 7.37807   
     axis 0 0 -20   XYZ
    dof rx
    limits (-10.0 170.0)
 end
 begin
     id 9 
     name rfoot
     direction -0.0239304 -0.0543852 0.998233   
     length 1.87018  
     axis -90 -7.62852e-016 -20   XYZ
    dof rx rz
    limits (-45.0 90.0)
           (-20.0 70.0)
  end
  begin
     id 10 
     name rtoes
     direction -1.53584e-011 -4.2242e-011 1   
     length 0.951568   
     axis -90 -7.62852e-016 -20   XYZ
    dof rx
    limits (-90.0 20.0)
  end
  begin
     id 11 
     name lowerback
     direction 0.00322089 0.999033 0.0438587   
     length 2.07568   
     axis 0 0 0   XYZ
    dof rx ry rz
    limits (-20.0 45.0)
           (-30.0 30.0)
           (-30.0 30.0)
  end
  begin
     id 12 
     name upperback
     direction -0.00321932 0.999732 -0.0229403   
     length 2.06253   
     axis 0 0 0   XYZ
    dof rx ry rz
    limits (-20.0 45.0)
           (-30.0 30.0)
           (-30.0 30.0)
  end
  begin
     id 13 
     name thorax
     direction -0.00537537 0.998955 -0.0453918   
     length 2.06975   
     axis 0 0 0   XYZ
    dof rx ry rz
    limits (-20.0 45.0)
           (-30.0 30.0)
           (-30.0 30.0)
  end
  begin
     id 14 
     name lowerneck
     direction -0.00013604 0.994111 0.108363   
     length 1.50836   
     axis 0 0 0   XYZ
    dof rx ry rz
    limits (-20.0 45.0)
           (-30.0 30.0)
           (-30.0 30.0)
  end
  begin
     id 15 
     name upperneck
     direction 0.0397262 0.983859 -0.174482   
     length 1.53037   
     axis 0 0 0   XYZ
    dof rx ry rz
    limits (-20.0 45.0)
           (-30.0 30.0)
           (-30.0 30.0)
  end
  begin
     id 16
     name head
     direction 0.0109991 0.997082 -0.0755378  
     length 1.56928  
     axis 0 0 0   XYZ
    dof rx ry rz
    limits (-20.0 45.0)
           (-30.0 30.0)
           (-30.0 30.0)
  end
  begin
     id 17 
     name lclavicle
     direction 0.964749 0.254 -0.068874  
     length 3.26503  
     axis 0 0 0   XYZ
    dof ry rz
    limits (-20.0 10.0)
           (0.0 20.0)
  end
  begin
     id 18 
     name lhumerus
     direction 1 -4.48941e-011 -2.05079e-027   
     length 5.68236   
     axis 180 -30 -90   XYZ
    dof rx ry rz
    limits (-60.0 90.0)
           (-90.0 90.0)
           (-90.0 90.0)
  end
  begin
     id 19
     name lradius
     direction 1 -4.48956e-011 6.2882e-027   
     length 3.17112   
     axis 180 -30 -90   XYZ
    dof rx
    limits (-10.0 170.0)
  end
  begin
     id 20
     name lwrist
     direction 1 -4.49014e-011 1.73219e-026   
     length 1.58556   
     axis -1.04724e-014 90 90   XYZ
    dof ry
    limits (-180.0 0.0)
 end
  begin
     id 21 
     name lhand
     direction 1 -4.49312e-011 3.46438e-026   
     length 0.632691   
     axis -2.21057e-014 90 90   XYZ
    dof rx rz
    limits (-90.0 90.0)
           (-45.0 45.0)
  end
  begin
     id 22 
     name lfingers
     direction 1 -4.48894e-011 6.92876e-026   
     length 0.510091   
     axis -4.42114e-014 90 90   XYZ
    dof rx
    limits (0.0 90.0)
  end
  begin
     id 23
     name lthumb
     direction 0.707107 -6.34705e-011 0.707107   
     length 0.732392   
     axis -90 45 2.85299e-015   XYZ
    dof rx rz
    limits (-45.0 45.0)
           (-45.0 45.0)
  end
  begin
     id 24 
     name rclavicle
     direction -0.954374 0.280496 -0.102435   
     length 3.25419  
     axis 0 0 0   XYZ 
    dof ry rz
    limits (-10.0 20.0)
           (-20.0 0.0)
  end
  begin
     id 25 
     name rhumerus
     direction -1 -4.48994e-011 -1.07204e-017  
     length 5.8712   
     axis 180 30 90   XYZ
    dof rx ry rz
    limits (-90.0 60.0)
           (-90.0 90.0)
           (-90.0 90.0)
  end
  begin
     id 26 
     name rradius
     direction -1 -4.48972e-011 5.89292e-027   
     length 3.37589   
     axis 180 30 90   XYZ
    dof rx
    limits (-10.0 170.0)
  end
  begin
     id 27 
     name rwrist
     direction -1 -4.48942e-011 1.73219e-026   
     length 1.68794   
     axis -1.04724e-014 -90 -90   XYZ
    dof ry
    limits (-180.0 0.0)
  end
  begin
     id 28
     name rhand
     direction -1 -4.48514e-011 3.46438e-026   
     length 0.603257   
     axis -2.21057e-014 -90 -90   XYZ
    dof rx rz
    limits (-90.0 90.0)
           (-45.0 45.0)
  end
  begin
     id 29
     name rfingers
     direction -1 -4.50028e-011 6.92876e-026   
     length 0.486362   
     axis -4.42114e-014 -90 -90   XYZ
    dof rx
    limits (0.0 90.0)
  end
  begin
     id 30
     name rthumb
     direction -0.707107 -6.34926e-011 0.707107   
     length 0.698321   
     axis -90 -45 -2.85299e-015   XYZ
    dof rx rz
    limits (-45.0 45.0)
           (-45.0 45.0)
  end
:hierarchy
  begin
    root lhipjoint rhipjoint lowerback
    lhipjoint lfemur
    lfemur ltibia
    ltibia lfoot
    lfoot ltoes
    rhipjoint rfemur
    rfemur rtibia
    rtibia rfoot
    rfoot rtoes
    lowerback upperback
    upperback thorax
    thorax lowerneck lclavicle rclavicle
    lowerneck upperneck
    upperneck head
    lclavicle lhumerus
    lhumerus lradius
    lradius lwrist
    lwrist lhand lthumb
    lhand lfingers
    rclavicle rhumerus
    rhumerus rradius
    rradius rwrist
    rwrist rhand rthumb
    rhand rfingers
  end

#!OML:ASF I:\Segmentation\Patient Classification 1\Patient 1\Session 1\Patient1.ASF
:FULLY-SPECIFIED
:DEGREES
2997
root 13.9813 18.5875 -0.705525 -317.911 -91.2578 -37.5479
lowerback -6.61475 0.491056 1.81366
upperback 2.23648 0.456261 0.531896
thorax 6.0556 0.28059 -0.411088
lowerneck -16.9088 -3.48289 -1.95023
upperneck 12.9363 -4.81075 3.28192
head 6.85098 -2.12556 0.860433
rclavicle 5.36719e-015 1.27222e-014
rhumerus 4.53494 28.7956 -94.3655
rradius 103.359
rwrist -47.1376
rhand -32.9289 -0.00216162
rfingers 7.12502
rthumb -6.1456 -29.893
lclavicle 5.36719e-015 1.27222e-014
lhumerus 10.5177 -31.5701 82.0448
lradius 100.31
lwrist 6.04938
lhand -20.1396 25.1299
lfingers 7.12502
lthumb 6.20509 55.019
rfemur -13.0932 6.29369 17.9973
rtibia 24.6709
rfoot 0.245587 9.79757
rtoes 35.8319
lfemur -10.2701 -4.24505 -14.9046
ltibia 20.9925
lfoot -26.3995 13.5607
ltoes -0.0369892
2998
root 13.9796 18.5883 -0.683736 -321.139 -91.3151 -34.3096
lowerback -6.65555 0.522819 1.79598
upperback 2.24402 0.499217 0.532
thorax 6.08763 0.301332 -0.395576
lowerneck -16.8602 -3.49855 -1.96154
upperneck 12.8444 -4.83986 3.36012
head 6.8163 -2.13482 0.885573
rclavicle -6.4605e-015 -3.97569e-016
rhumerus 4.41366 28.4386 -94.1655
rradius 103.369
rwrist -47.2048
rhand -32.429 -0.259846
rfingers 7.12502
rthumb -5.66289 -30.1642
lclavicle -6.4605e-015 -3.97569e-016
lhumerus 10.5548 -31.3086 82.0171
lradius 100.683
lwrist 6.3721
lhand -18.7559 25.2629
lfingers 7.12502
lthumb 7.54075 55.1085
rfemur -13.0597 6.53989 17.9364
rtibia 24.5693
rfoot 0.110941 9.89964
rtoes 35.8221
lfemur -10.2162 -4.28532 -14.956
ltibia 20.9329
lfoot -26.5666 13.5104
ltoes 0.30972
2999
root 13.978 18.589 -0.661451 -323.664 -91.38 -31.7829
lowerback -6.69764 0.567946 1.79851
upperback 2.25301 0.559478 0.511156
thorax 6.12273 0.331871 -0.411088
lowerneck -16.7763 -3.53685 -2.02472
upperneck 12.7333 -4.90041 3.51673
head 6.77384 -2.15572 0.941496
rclavicle -2.13694e-015 -3.57812e-015
rhumerus 4.22742 27.9926 -93.9528
rradius 103.387
rwrist -47.489
rhand -31.8299 -0.473067
rfingers 7.12502
rthumb -5.08446 -30.3921
lclavicle -2.13694e-015 -3.57812e-015
lhumerus 10.6892 -31.1914 81.8471
lradius 100.998
lwrist 6.82524
lhand -18.074 25.486
lfingers 7.12502
lthumb 8.19895 55.307
rfemur -13.0213 6.72664 17.8628
rtibia 24.4746
rfoot 0.00474971 9.95942
rtoes 35.8116
lfemur -10.149 -4.32852 -15.0219
ltibia 20.8647
lfoot -26.7374 13.4504
ltoes 0.724159
3000
root 13.976 18.5901 -0.639296 -325.631 -91.4515 -29.8135
lowerback -6.75013 0.625129 1.81882
upperback 2.26269 0.635393 0.468155
thorax 6.16541 0.371371 -0.457608
lowerneck -16.68 -3.59043 -2.10745
upperneck 12.6225 -4.98482 3.71809
head 6.7321 -2.18556 1.01251
rclavicle 1.71452e-014 1.51076e-014
rhumerus 3.97889 27.4446 -93.7352
rradius 103.389
rwrist -47.7611
rhand -31.1987 -0.646591
rfingers 7.12502
rthumb -4.47498 -30.5793
lclavicle 1.71452e-014 1.51076e-014
lhumerus 10.8676 -31.1642 81.5932
lradius 101.268
lwrist 7.25602
lhand -17.8784 25.7209
lfingers 7.12502
lthumb 8.38773 55.5343
rfemur -12.9836 6.84548 17.7823
rtibia 24.3829
rfoot -0.063074 9.97785
rtoes 35.806
lfemur -10.078 -4.38995 -15.0985
ltibia 20.7903
lfoot -26.9038 13.417
ltoes 1.08754
3001
root 13.9736 18.592 -0.617773 -327.191 -91.5172 -28.2401
lowerback -6.81706 0.686278 1.848
upperback 2.27063 0.716313 0.412375
thorax 6.21512 0.414025 -0.521555
lowerneck -16.5917 -3.6509 -2.17707
upperneck 12.5266 -5.08209 3.91911
head 6.69691 -2.221 1.07964
rclavicle 2.73329e-015 4.77083e-015
rhumerus 3.69427 26.8111 -93.5028
rradius 103.359
rwrist -47.8993
rhand -30.6648 -0.789123
rfingers 7.12502
rthumb -3.9595 -30.7321
lclavicle 2.73329e-015 4.77083e-015
lhumerus 11.0369 -31.1667 81.309
lradius 101.517
lwrist 7.5327
lhand -17.9555 25.8937
lfingers 7.12502
lthumb 8.31333 55.7101
rfemur -12.9494 6.9262 17.7049
rtibia 24.2855
rfoot -0.109247 9.98441
rtoes 35.7987
lfemur -10.0188 -4.48053 -15.1739
ltibia 20.7175
lfoot -27.0639 13.4172
ltoes 1.39415
3002
root 13.9712 18.595 -0.596642 -328.244 -91.5595 -27.1597
lowerback -6.89406 0.744894 1.8806
upperback 2.27067 0.793455 0.356259
thorax 6.2625 0.454925 -0.588039
lowerneck -16.5072 -3.71611 -2.23246
upperneck 12.4475 -5.1857 4.09637
head 6.66722 -2.2608 1.13598
rclavicle 8.69683e-015 4.37326e-015
rhumerus 3.38715 26.1024 -93.2371
rradius 103.305
rwrist -47.9399
rhand -30.295 -0.892202
rfingers 7.12502
rthumb -3.60237 -30.8415
lclavicle 8.69683e-015 4.37326e-015
lhumerus 11.1623 -31.1589 81.0403
lradius 101.769
lwrist 7.58899
lhand -18.1848 25.9569
lfingers 7.12502
lthumb 8.09195 55.7819
rfemur -12.9151 7.00408 17.633
rtibia 24.1712
rfoot -0.163423 10.0117
rtoes 35.7802
lfemur -9.9846 -4.59797 -15.2421
ltibia 20.656
lfoot -27.2165 13.4318
ltoes 1.69005
3003
root 13.969 18.5992 -0.575492 -328.825 -91.5641 -26.5429
lowerback -6.97215 0.797005 1.90801
upperback 2.25817 0.861345 0.318947
thorax 6.29686 0.490487 -0.633092
lowerneck -16.4089 -3.78734 -2.30035
upperneck 12.3755 -5.29037 4.24675
head 6.6373 -2.30424 1.18575
rclavicle -1.68967e-015 -1.03368e-014
rhumerus 3.05347 25.3328 -92.9166
rradius 103.241
rwrist -47.988
rhand -30.1486 -0.959301
rfingers 7.12502
rthumb -3.46095 -30.911
lclavicle -1.68967e-015 -1.03368e-014
lhumerus 11.2342 -31.1115 80.8281
lradius 102.039
lwrist 7.43982
lhand -18.5363 25.9221
lfingers 7.12502
lthumb 7.75273 55.7599
rfemur -12.8728 7.10214 17.5695
rtibia 24.0318
rfoot -0.249103 10.0778
rtoes 35.7471
lfemur -9.97962 -4.72557 -15.2971
ltibia 20.6141
lfoot -27.3514 13.4339
ltoes 1.99389
3004
root 13.9673 18.6043 -0.554132 -329.115 -91.5276 -26.2148
lowerback -7.04295 0.837564 1.91553
upperback 2.23739 0.913479 0.319988
thorax 6.31698 0.516467 -0.628964
lowerneck -16.3043 -3.86222 -2.40958
upperneck 12.3133 -5.38705 4.37558
head 6.60988 -2.3476 1.23617
rclavicle -1.88845e-015 3.97569e-016
rhumerus 2.69372 24.5329 -92.5292
rradius 103.17
rwrist -48.0897
rhand -30.2808 -1.0156
rfingers 7.12502
rthumb -3.58864 -30.9651
lclavicle -1.88845e-015 3.97569e-016
lhumerus 11.2678 -30.9906 80.6953
lradius 102.335
lwrist 7.15351
lhand -19.0207 25.827
lfingers 7.12502
lthumb 7.28515 55.6816
rfemur -12.8156 7.23759 17.5178
rtibia 23.8688
rfoot -0.382061 10.192
rtoes 35.7006
lfemur -9.99755 -4.85063 -15.3346
ltibia 20.5953
lfoot -27.4637 13.4014
ltoes 2.33323
3005
root 13.9662 18.6094 -0.532776 -329.272 -91.4569 -26.0235
lowerback -7.10934 0.861924 1.89724
upperback 2.22088 0.943913 0.359854
thorax 6.33734 0.529849 -0.572484
lowerneck -16.2228 -3.93062 -2.54926
upperneck 12.2649 -5.46432 4.48269
head 6.59043 -2.38427 1.2862
rclavicle 0 1.59028e-015
rhumerus 2.32473 23.7243 -92.0998
rradius 103.077
rwrist -48.2352
rhand -30.6493 -1.0885
rfingers 7.12502
rthumb -3.94446 -31.0317
lclavicle 0 1.59028e-015
lhumerus 11.2972 -30.7727 80.6226
lradius 102.659
lwrist 6.80979
lhand -19.6115 25.7215
lfingers 7.12502
lthumb 6.71491 55.595
rfemur -12.7467 7.41391 17.4777
rtibia 23.6937
rfoot -0.561402 10.3533
rtoes 35.6573
lfemur -10.0317 -4.9712 -15.3556
ltibia 20.5953
lfoot -27.5587 13.3346
ltoes 2.70302
